<svg width="3000" height="3000" version="1.1" xmlns="http://www.w3.org/2000/svg" desc="Created with imagetracer.js version 1.2.6" ><path fill="rgb(255,255,255)" stroke="rgb(255,255,255)" stroke-width="0" opacity="1" d="M 1578.5 257 L 1608.5 257 L 1609.5 258 L 1624.5 258 L 1625.5 259 L 1634.5 259 L 1643.5 261 L 1660.5 262 L 1705.5 273 L 1718.5 279 L 1724.5 280 L 1749.5 289 L 1762.5 296 L 1773.5 300 L 1817.5 328 L 1844.5 349 L 1875 378.5 Q 1899.9 405.6 1920 437.5 L 1947 487.5 L 1962 522.5 L 1963 530.5 L 1971 554.5 L 1973 567.5 L 1976 575.5 L 1976 580.5 L 1980 595.5 L 1981 609.5 L 1982 610.5 L 1983 644.5 L 1984 645.5 L 1984 718.5 L 1983 719.5 L 1983 732.5 L 1984 733.5 L 1984 747.5 L 1983 748.5 L 1983 767.5 L 1984 768.5 L 1984 841.5 L 1983 842.5 L 1983 874.5 L 1988 897.5 Q 1995.9 912.6 2007.5 924 Q 2018.9 935.1 2035.5 941 L 2047.5 944 Q 2057.8 942.7 2064.5 945 L 2075.5 943 L 2095.5 936 Q 2109.8 927.3 2120 914.5 L 2130 897.5 L 2135 882.5 L 2138 867.5 L 2155.5 840 L 2160.5 839 L 2164 844.5 L 2164 869.5 L 2161 886.5 L 2161 894.5 L 2156 912.5 Q 2149.1 929.6 2139 943.5 L 2127.5 955 Q 2112.8 966.8 2093.5 974 L 2073.5 978 L 2048.5 979 L 2020.5 973 Q 1995.1 962.9 1978 944.5 L 1970 934.5 L 1958 910.5 L 1954 898.5 L 1952 878.5 L 1951 877.5 L 1951 826.5 L 1952 825.5 L 1952 762.5 L 1949 756 L 1940.5 752 L 1492.5 749 L 1491.5 750 L 1210.5 750 L 1205.5 749 L 1200 745.5 L 1198 741.5 L 1198 628.5 L 1199 627.5 L 1200 600.5 L 1204 582.5 L 1204 575.5 L 1207 568.5 L 1209 555.5 L 1221 519.5 L 1224 514.5 L 1226 505.5 L 1232 494.5 L 1235 485.5 L 1254 448.5 L 1280 410.5 Q 1286.9 404.9 1291 396.5 L 1321.5 366 L 1337.5 351 L 1368.5 327 L 1409.5 302 L 1430.5 292 L 1486.5 272 L 1494.5 271 L 1515.5 264 L 1531.5 261 L 1538.5 261 L 1539.5 260 L 1559.5 259 L 1560.5 258 L 1577.5 258 L 1578.5 257 Z " /><path fill="rgb(255,255,255)" stroke="rgb(255,255,255)" stroke-width="0" opacity="1" d="M 1315.5 1361 L 1342.5 1362 L 1346 1364.5 L 1343.5 1368 L 1329.5 1372 L 1317.5 1373 L 1308.5 1376 L 1292.5 1377 L 1291.5 1378 L 1280.5 1378 L 1273.5 1380 L 1261.5 1381 L 1243.5 1386 L 1228.5 1388 L 1221.5 1391 L 1212.5 1391 L 1204.5 1393 L 1187.5 1402 L 1178.5 1404 L 1166.5 1411 L 1149.5 1415 L 1142.5 1420 L 1121.5 1429 L 1112.5 1436 L 1107.5 1437 L 1082.5 1451 L 1065.5 1457 L 1057 1464.5 L 1053.5 1470 L 1033.5 1482 L 1017 1494.5 L 1008.5 1504 L 998 1513.5 L 992.5 1520 Q 982.2 1524.2 976 1532.5 L 970.5 1539 L 962.5 1543 L 942.5 1561 L 938 1562 L 937 1559.5 L 969 1517.5 L 993.5 1492 Q 1008.6 1482.1 1019.5 1468 Q 1042.4 1456.4 1060.5 1440 L 1080.5 1430 L 1113.5 1410 L 1136.5 1400 L 1150.5 1396 L 1171.5 1387 L 1182.5 1385 L 1195.5 1379 Q 1214 1378 1227.5 1372 L 1243.5 1371 L 1268.5 1364 L 1294.5 1364 L 1295.5 1363 L 1306.5 1363 L 1315.5 1361 Z " /><path fill="rgb(255,255,255)" stroke="rgb(255,255,255)" stroke-width="0" opacity="1" d="M 2028.5 1421 Q 2041.6 1419.4 2049.5 1423 L 2071.5 1423 L 2072.5 1424 L 2091.5 1426 L 2097.5 1428 L 2107.5 1428 L 2113 1432.5 Q 2112.7 1441.7 2106.5 1445 L 2095.5 1451 L 2081.5 1454 L 2019.5 1455 L 2018.5 1454 L 1976.5 1454 Q 1963.9 1451.1 1954.5 1445 L 1948 1439.5 Q 1944 1436 1945 1427.5 Q 1947.2 1422.7 1955.5 1424 Q 1962.8 1427.7 1975.5 1426 L 1989.5 1423 L 2011.5 1423 L 2012.5 1422 L 2027.5 1422 L 2028.5 1421 Z " /><path fill="rgb(255,255,255)" stroke="rgb(255,255,255)" stroke-width="0" opacity="1" d="M 390.5 1686 L 398.5 1686 L 400 1687.5 L 398.5 1691 L 379.5 1700 L 368.5 1703 L 347.5 1712 L 338.5 1718 L 307 1747.5 L 280 1784.5 L 272 1802.5 L 263 1834.5 L 262 1848.5 L 261 1849.5 L 261 1871.5 L 262 1872.5 L 262 1882.5 Q 264.6 1885.4 264 1891.5 L 273 1923.5 L 302 1970.5 L 303 1976.5 Q 302.3 1978.8 298.5 1978 Q 288.3 1972.7 282 1963.5 L 268 1944.5 L 262 1932.5 L 261 1927.5 L 255 1917.5 L 247 1891.5 L 247 1883.5 L 243 1864.5 L 242 1848.5 L 244 1838.5 L 244 1828.5 L 247 1814.5 L 264 1770.5 L 284 1741.5 L 295.5 1730 L 324.5 1709 L 344.5 1699 L 374.5 1689 L 384.5 1688 L 390.5 1686 Z " /><path fill="rgb(255,255,255)" stroke="rgb(255,255,255)" stroke-width="0" opacity="1" d="M 404.5 1753 L 430.5 1753 L 456.5 1759 Q 481.6 1769.8 498 1789.5 L 509 1804.5 L 520 1832.5 L 520 1837.5 L 522 1844.5 L 522 1864.5 L 519 1880.5 L 511 1901.5 Q 504.4 1915.4 493.5 1925 L 489 1928.5 L 477.5 1941 Q 465.6 1949.6 449.5 1954 L 434.5 1957 L 417.5 1957 L 416.5 1956 L 397.5 1955 L 377.5 1948 L 351.5 1932 L 341 1922.5 L 329 1906.5 L 318 1884.5 L 315 1871.5 L 314 1850.5 L 315 1849.5 L 315 1840.5 L 316 1839.5 L 317 1827.5 L 326 1806.5 Q 336.1 1787.6 352.5 1775 L 376.5 1761 L 390.5 1756 L 404.5 1753 Z " /><path fill="rgb(255,255,255)" stroke="rgb(255,255,255)" stroke-width="0" opacity="1" d="M 1950.5 1904 L 1955.5 1904 L 1964.5 1907 L 2044.5 1907 L 2045.5 1906 L 2208.5 1906 L 2209.5 1907 L 2225.5 1907 L 2226.5 1906 L 2234.5 1906 L 2237 1910.5 Q 2234 1918 2227.5 1922 L 2220.5 1926 L 2212.5 1928 L 2064.5 1928 L 2063.5 1927 L 2027.5 1927 L 2026.5 1928 L 1991.5 1928 L 1990.5 1927 L 1981.5 1927 L 1980.5 1928 L 1972.5 1928 Q 1956.6 1924.4 1947 1914.5 L 1945 1908.5 L 1950.5 1904 Z " /><path fill="rgb(0,74,35)" stroke="rgb(0,74,35)" stroke-width="0" opacity="1" d="M 1574.5 106 L 1607.5 106 L 1608.5 107 L 1623.5 107 L 1624.5 108 L 1637.5 108 L 1638.5 109 L 1655.5 109 L 1666.5 112 L 1689.5 114 L 1730.5 123 L 1778.5 139 L 1820.5 157 L 1854.5 174 L 1877.5 188 L 1929.5 225 L 1974 265.5 L 2004 298.5 L 2047 356.5 L 2071 399.5 Q 2078.5 420 2089 437.5 L 2092 447.5 L 2100 464.5 L 2116 515.5 L 2127 572.5 L 2128 587.5 L 2131 604.5 L 2131 613.5 L 2132 614.5 L 2133 670.5 L 2132 671.5 L 2132 715.5 L 2133 716.5 L 2133 744.5 L 2137.5 751 L 2144.5 754 Q 2150 752.5 2151.5 755 L 2402.5 756 L 2422.5 760 L 2436.5 766 Q 2456.2 776.2 2470 792.5 L 2481 811.5 L 2488 831.5 L 2490 841.5 L 2491 861.5 L 2492 862.5 L 2492 871.5 L 2494 881.5 L 2494 891.5 L 2497 906.5 L 2497 916.5 L 2498 917.5 L 2498 926.5 L 2500 937.5 L 2500 949.5 L 2502 955.5 L 2503 969.5 L 2506 985.5 L 2507 1006.5 L 2509 1012.5 L 2510 1031.5 L 2513 1045.5 L 2513 1054.5 L 2514 1055.5 L 2515 1071.5 L 2516 1072.5 L 2519 1113.5 L 2521 1120.5 L 2521 1128.5 L 2522 1129.5 L 2522 1136.5 L 2525 1153.5 L 2525 1165.5 L 2527 1174.5 L 2527 1183.5 L 2528 1184.5 L 2528 1191.5 L 2532 1214.5 L 2532 1224.5 L 2534 1231.5 L 2534 1242.5 L 2535 1243.5 L 2535 1250.5 L 2538 1267.5 L 2538 1275.5 L 2542 1296.5 L 2542 1310.5 L 2543 1311.5 L 2544 1322.5 Q 2542.8 1328.3 2538.5 1331 L 2536.5 1332 L 2394.5 1333 L 2385.5 1335 L 2379 1340.5 L 2375 1349.5 L 2375 1389.5 L 2370.5 1395 L 2366.5 1397 L 2333.5 1397 L 2324 1390.5 L 2323 1388.5 L 2323 1305.5 L 2322 1304.5 L 2321 1285.5 L 2315 1265.5 L 2310 1254.5 L 2295 1232.5 L 2287.5 1225 L 2265.5 1213 L 2259 1206.5 L 2248 1173.5 L 2240 1158.5 Q 2228.5 1141 2212.5 1128 L 2186.5 1111 L 2166.5 1102 Q 2156.5 1101 2149.5 1097 L 2131.5 1096 L 2121.5 1094 L 2087.5 1093 L 2086.5 1092 L 2071.5 1092 L 2070.5 1091 L 2050.5 1091 L 2041.5 1089 L 1998.5 1087 L 1988.5 1085 L 1975.5 1085 L 1974.5 1084 L 1963.5 1084 L 1962.5 1083 L 1951.5 1083 L 1950.5 1082 L 1933.5 1082 L 1932.5 1081 L 1912.5 1081 L 1911.5 1080 L 1896.5 1080 L 1895.5 1079 L 1862.5 1078 L 1861.5 1077 L 1825.5 1075 L 1814.5 1073 L 1799.5 1073 L 1798.5 1072 L 1768.5 1071 L 1767.5 1070 L 1750.5 1070 L 1749.5 1069 L 1710.5 1067 L 1709.5 1066 L 1669.5 1065 L 1668.5 1064 L 1658.5 1064 L 1657.5 1063 L 1642.5 1063 L 1641.5 1062 L 1630.5 1062 L 1629.5 1061 L 1618.5 1061 L 1617.5 1060 L 1602.5 1060 L 1601.5 1059 L 1585.5 1059 L 1584.5 1058 L 1573.5 1058 L 1572.5 1057 L 1536.5 1056 L 1535.5 1055 L 1519.5 1055 L 1518.5 1054 L 1498.5 1054 L 1497.5 1053 L 1477.5 1053 L 1476.5 1052 L 1459.5 1052 L 1458.5 1051 L 1426.5 1050 L 1425.5 1049 L 1401.5 1048 L 1400.5 1047 L 1374.5 1047 L 1373.5 1046 L 1358.5 1046 L 1357.5 1045 L 1338.5 1045 L 1330.5 1043 L 1316.5 1043 L 1315.5 1042 L 1288.5 1041 L 1287.5 1040 L 1275.5 1040 L 1274.5 1039 L 1144.5 1035 L 1143.5 1034 L 1124.5 1034 L 1123.5 1033 L 1111.5 1033 L 1110.5 1032 L 1090.5 1032 L 1089.5 1031 L 1074.5 1031 L 1073.5 1030 L 1040.5 1030 L 1039.5 1029 L 1024.5 1029 L 1023.5 1028 L 984.5 1027 L 983.5 1026 L 970.5 1026 L 969.5 1025 L 950.5 1025 L 949.5 1024 L 920.5 1023 L 919.5 1022 L 882.5 1021 L 881.5 1020 L 856.5 1020 L 855.5 1019 L 838.5 1019 L 837.5 1018 L 780.5 1018 L 779.5 1019 L 755.5 1021 L 743.5 1024 L 732.5 1025 L 701.5 1033 L 687.5 1038 L 678.5 1038 L 674 1034.5 L 673 1032.5 L 673 1011.5 L 675 1005.5 L 675 992.5 L 676 991.5 L 678 955.5 L 680 949.5 L 680 932.5 L 681 931.5 L 681 920.5 L 682 919.5 L 683 873.5 L 684 872.5 L 685 846.5 L 686 845.5 L 687 831.5 Q 694 802 712.5 784 Q 724.5 772 740.5 764 L 752.5 760 L 771.5 756 L 1001.5 756 L 1009 760.5 L 1011 764.5 L 1012 792.5 L 1011 793.5 L 1011 805.5 L 1012 806.5 L 1012 879.5 L 1013 880.5 L 1014 892.5 Q 1018.4 912.1 1026 928.5 L 1031 936.5 L 1044.5 952 L 1061.5 965 L 1082.5 975 L 1106.5 980 L 1125.5 980 L 1144.5 976 Q 1153.5 972.5 1159 965.5 Q 1159.8 960.8 1156.5 960 L 1134.5 956 L 1093.5 937 L 1074.5 923 L 1063 911.5 L 1055 895.5 L 1050 877.5 L 1050 858.5 L 1049 857.5 L 1049 657.5 L 1050 656.5 L 1051 604.5 L 1052 603.5 L 1053 580.5 L 1056 567.5 L 1058 545.5 L 1066 508.5 L 1093 432.5 L 1111 395.5 L 1138 350.5 L 1173 303.5 L 1216.5 257 L 1244.5 232 L 1286.5 200 L 1335.5 170 L 1380.5 149 L 1401.5 142 L 1411.5 137 L 1467.5 120 L 1522.5 110 L 1538.5 109 L 1539.5 108 L 1552.5 108 L 1553.5 107 L 1573.5 107 L 1574.5 106 Z M 1577 255 L 1576 256 L 1543 258 L 1542 259 L 1518 262 L 1496 269 L 1478 273 L 1454 282 L 1448 283 Q 1441 288 1431 290 L 1393 310 L 1368 326 L 1331 355 L 1289 397 L 1261 435 L 1245 462 L 1226 502 L 1222 516 L 1219 521 L 1212 541 L 1207 558 L 1206 568 L 1202 579 L 1202 585 L 1199 598 L 1199 606 L 1198 607 L 1198 621 L 1197 622 L 1197 664 L 1196 665 L 1196 728 L 1197 729 L 1196 734 L 1196 739 L 1198 746 L 1203 750 L 1214 751 L 1215 752 L 1391 752 L 1392 751 L 1756 752 L 1757 753 L 1940 754 L 1945 756 Q 1949 759 1950 765 L 1950 881 L 1951 882 L 1952 896 L 1957 913 L 1971 940 L 1996 962 L 2019 974 L 2044 980 L 2073 980 L 2093 976 Q 2114 968 2130 955 L 2140 945 L 2154 921 L 2163 895 L 2164 880 L 2166 872 L 2166 845 Q 2165 839 2161 836 L 2157 837 L 2139 862 L 2135 872 L 2134 880 L 2130 893 L 2117 915 Q 2108 926 2096 934 L 2078 941 L 2068 943 L 2044 941 Q 2025 936 2013 926 L 2003 917 L 1992 901 L 1987 886 L 1986 873 L 1985 872 L 1985 791 L 1986 790 L 1986 770 L 1985 769 L 1985 756 L 1986 755 L 1986 730 L 1985 729 L 1985 685 L 1986 684 L 1986 649 L 1985 648 L 1985 628 L 1984 627 L 1982 599 L 1979 586 L 1979 580 L 1975 569 L 1971 549 Q 1965 535 1962 518 L 1944 477 L 1922 438 Q 1901 404 1874 376 L 1846 348 L 1820 327 L 1780 302 L 1752 288 L 1725 278 L 1719 277 L 1708 272 L 1659 260 L 1643 259 L 1634 257 L 1625 257 L 1624 256 L 1611 256 L 1610 255 L 1577 255 Z " /><path fill="rgb(0,74,35)" stroke="rgb(0,74,35)" stroke-width="0" opacity="1" d="M 1205.5 1151 L 1227.5 1151 L 1228.5 1152 L 1255.5 1153 L 1256.5 1154 L 1286.5 1154 L 1287.5 1155 L 1309.5 1155 L 1310.5 1156 L 1352.5 1157 L 1353.5 1158 L 1381.5 1158 L 1389.5 1160 L 1408.5 1160 L 1409.5 1161 L 1464.5 1163 L 1465.5 1164 L 1490.5 1164 L 1501.5 1166 L 1515.5 1166 L 1516.5 1167 L 1541.5 1168 L 1542.5 1169 L 1567.5 1170 L 1568.5 1171 L 1601.5 1172 L 1611.5 1174 L 1645.5 1175 L 1646.5 1176 L 1658.5 1176 L 1666.5 1178 L 1713.5 1180 L 1724.5 1182 L 1766.5 1182 L 1767.5 1183 L 1791.5 1183 L 1792.5 1184 L 1819.5 1184 L 1828.5 1186 L 1874.5 1186 L 1875.5 1187 L 1937.5 1188 L 1938.5 1189 L 1956.5 1189 L 1957.5 1190 L 2005.5 1191 L 2021.5 1196 L 2030 1203.5 Q 2034 1207 2033 1215.5 L 2030 1227.5 L 2030 1244.5 Q 2034.9 1260.1 2046.5 1269 L 2060.5 1274 L 2154.5 1274 L 2155.5 1275 L 2168.5 1275 L 2169.5 1274 L 2222.5 1274 Q 2224.3 1276.8 2230.5 1275 L 2237.5 1278 L 2248 1287.5 L 2253 1298.5 L 2253 1319.5 L 2254 1320.5 L 2254 1331.5 L 2255 1332.5 L 2255 1366.5 L 2256 1367.5 L 2256 1419.5 L 2257 1420.5 L 2257 1428.5 L 2259 1438.5 L 2265.5 1448 L 2277.5 1454 L 2310.5 1455 L 2311.5 1454 L 2319.5 1454 L 2320.5 1455 L 2336.5 1455 L 2337.5 1454 L 2482.5 1454 L 2487.5 1453 L 2488.5 1454 L 2536.5 1454 L 2541.5 1455 Q 2558.1 1459.9 2568 1471.5 Q 2574.2 1478.3 2577 1488.5 L 2578 1500.5 L 2579 1501.5 L 2579 1513.5 Q 2574.7 1533.7 2561.5 1545 Q 2554.7 1551.7 2543.5 1554 L 2533.5 1554 L 2532.5 1555 L 2484.5 1555 L 2483.5 1556 L 2465.5 1557 L 2459 1560 L 2457 1564.5 L 2456 1573.5 L 2457 1574.5 L 2457 1585.5 L 2454 1594.5 L 2449.5 1599 L 2447.5 1600 L 2430.5 1600 L 2424.5 1602 L 2415.5 1602 L 2414.5 1603 L 2385.5 1603 L 2384.5 1602 L 2267.5 1602 L 2259.5 1600 L 2182.5 1599 Q 2174.5 1601.5 2170 1607.5 Q 2164.3 1615.3 2162 1626.5 L 2161 1645.5 L 2168 1667.5 L 2182.5 1684 L 2189.5 1688 L 2204.5 1693 L 2334.5 1694 L 2335.5 1693 L 2397.5 1693 L 2398.5 1694 L 2428.5 1694 L 2429.5 1693 L 2445.5 1693 L 2446.5 1692 L 2475.5 1692 L 2484.5 1694 L 2650.5 1694 L 2651.5 1693 L 2732.5 1693 L 2733.5 1694 L 2743.5 1694 L 2744.5 1693 L 2753.5 1693 L 2754.5 1694 L 2766.5 1695 L 2778.5 1700 L 2795 1714.5 L 2801 1724.5 L 2806 1742.5 L 2806 1759.5 Q 2800.9 1782.9 2784.5 1795 Q 2774.3 1801.8 2760.5 1805 L 2608.5 1806 L 2607.5 1807 L 2427.5 1807 L 2426.5 1808 L 2408.5 1808 Q 2383.8 1813.8 2370 1830.5 L 2357 1854.5 L 2355 1863.5 L 2355 1878.5 Q 2361.7 1908.8 2382.5 1925 Q 2392.2 1932.3 2406.5 1935 L 2417.5 1935 L 2418.5 1936 L 2455.5 1936 L 2456.5 1935 L 2498.5 1934 L 2499.5 1935 L 2527.5 1935 L 2528.5 1934 L 2559.5 1934 L 2560.5 1935 L 2608.5 1935 L 2609.5 1936 L 2714.5 1936 L 2715.5 1937 L 2726.5 1938 L 2737.5 1942 Q 2748.4 1948 2756 1957.5 L 2765 1974.5 L 2767 1985.5 L 2767 1998.5 Q 2763.1 2021.6 2748.5 2034 L 2733.5 2043 L 2711.5 2047 L 2650.5 2047 L 2649.5 2048 L 2623.5 2048 L 2622.5 2049 L 2536.5 2050 L 2535.5 2051 L 2427.5 2051 L 2426.5 2052 L 2364.5 2052 L 2359.5 2053 L 2358.5 2052 L 2345.5 2052 L 2336.5 2054 L 2158.5 2054 L 2157.5 2055 L 2101.5 2055 L 2100.5 2056 L 2061.5 2056 L 2060.5 2057 L 2048.5 2057 L 2024.5 2068 L 2010 2081.5 L 2001 2097.5 L 1999 2104.5 L 1999 2128.5 Q 2004.3 2151.7 2020.5 2164 Q 2031.2 2173.3 2047.5 2177 L 2373.5 2177 L 2385.5 2181 L 2401 2193.5 Q 2408.1 2201.9 2412 2213.5 L 2414 2224.5 L 2414 2235.5 L 2412 2246.5 L 2409 2254.5 Q 2405.5 2263.5 2398.5 2269 L 2389.5 2276 L 2370.5 2284 Q 2365 2282.5 2363.5 2285 L 2339.5 2285 L 2338.5 2284 L 2326.5 2284 L 2325.5 2285 L 2312.5 2285 L 2311.5 2284 L 2235.5 2284 L 2223.5 2287 L 2215 2294.5 L 2209 2307.5 L 2205 2330.5 L 2197.5 2340 L 2184.5 2346 L 2164.5 2349 L 2148.5 2355 L 2124.5 2359 L 2078.5 2372 L 2050.5 2377 L 2036.5 2382 L 2006.5 2388 L 2002.5 2390 L 1998.5 2390 L 1961.5 2400 L 1940.5 2403 L 1930.5 2407 L 1903.5 2412 L 1891.5 2416 L 1856.5 2424 L 1832.5 2427 L 1818.5 2433 L 1791.5 2438 L 1773.5 2443 L 1736.5 2449 L 1710.5 2456 L 1699.5 2457 L 1657.5 2467 L 1652.5 2467 L 1627.5 2473 L 1611.5 2475 L 1602.5 2479 L 1588.5 2480 L 1566.5 2486 L 1555.5 2487 L 1545.5 2490 L 1532.5 2491 L 1511.5 2496 L 1504.5 2496 L 1491.5 2500 L 1474.5 2501 L 1462.5 2504 L 1449.5 2505 L 1437.5 2508 L 1430.5 2508 L 1413.5 2512 L 1387.5 2515 L 1386.5 2516 L 1370.5 2517 L 1369.5 2518 L 1362.5 2518 L 1345.5 2521 L 1336.5 2521 L 1330.5 2523 L 1298.5 2526 L 1297.5 2527 L 1289.5 2527 L 1288.5 2528 L 1280.5 2528 L 1274.5 2530 L 1262.5 2530 L 1261.5 2531 L 1236.5 2533 L 1235.5 2534 L 1225.5 2534 L 1215.5 2536 L 1194.5 2536 Q 1187.3 2534.2 1184 2528.5 Q 1182.2 2521.3 1176.5 2518 L 1170.5 2516 L 1152.5 2516 L 1151.5 2517 L 1140.5 2517 L 1139.5 2518 L 1129.5 2518 L 1128.5 2519 L 1089.5 2521 L 1079.5 2523 L 1066.5 2523 L 1053.5 2526 L 1036.5 2526 L 1025.5 2528 L 1014.5 2528 L 998.5 2531 L 984.5 2531 L 983.5 2532 L 959.5 2533 L 949.5 2535 L 909.5 2537 L 908.5 2538 L 897.5 2538 L 886.5 2540 L 842.5 2542 L 841.5 2543 L 824.5 2544 L 823.5 2545 L 815.5 2545 L 814.5 2546 L 806.5 2546 L 796.5 2548 L 776.5 2549 L 775.5 2548 L 764.5 2548 L 755.5 2546 L 738.5 2545 L 727.5 2542 L 715.5 2541 L 672.5 2527 L 651.5 2516 L 624.5 2497 L 595 2467.5 L 574 2440.5 L 535 2399.5 L 501.5 2361 L 495 2355.5 L 462 2315.5 L 440 2293.5 L 404 2251.5 L 363 2207.5 L 361 2203.5 L 332 2173.5 L 314 2150.5 L 255 2087.5 L 235 2062.5 L 192.5 2016 L 186 2010.5 L 170.5 1993 L 158 1981.5 L 137 1951.5 L 129 1935.5 Q 126.5 1923 121 1913.5 L 115 1888.5 L 111 1877.5 L 110 1863.5 L 109 1862.5 L 109 1851.5 L 108 1850.5 L 108 1835.5 L 109 1834.5 L 109 1824.5 L 110 1823.5 L 110 1811.5 L 111 1810.5 L 112 1795.5 L 120 1764.5 L 129 1742.5 L 141 1718.5 L 151 1702.5 L 187.5 1663 L 204 1648.5 L 230.5 1621 L 237 1615.5 L 254.5 1597 L 294 1559.5 L 297.5 1555 L 307 1547.5 L 339.5 1513 L 359 1495.5 L 382.5 1471 L 397 1457.5 L 407.5 1445 Q 429.2 1428.2 447 1407.5 L 453.5 1400 L 458 1396.5 L 461.5 1392 L 472 1382.5 L 485.5 1368 L 509 1346.5 L 517.5 1336 L 535 1321.5 L 544.5 1310 L 552.5 1304 L 597 1260.5 L 600 1255.5 L 619 1236.5 Q 623 1227.5 630.5 1222 Q 648.9 1212.9 663.5 1200 L 677.5 1193 L 695.5 1188 L 715.5 1180 L 730.5 1177 L 734.5 1175 L 756.5 1173 L 757.5 1172 L 807.5 1171 L 808.5 1172 L 920.5 1172 L 921.5 1173 L 1114.5 1173 L 1115.5 1174 L 1169.5 1174 L 1179 1168.5 L 1187.5 1156 L 1196.5 1152 L 1204.5 1152 L 1205.5 1151 Z M 1329 1353 L 1328 1354 L 1311 1354 L 1310 1355 L 1283 1356 L 1275 1358 L 1266 1358 L 1239 1364 L 1227 1365 L 1199 1374 L 1184 1377 L 1167 1384 L 1161 1385 L 1133 1395 L 1113 1404 Q 1093 1417 1070 1427 Q 1054 1440 1036 1450 L 995 1483 Q 964 1511 938 1543 L 923 1562 L 897 1601 L 890 1614 L 864 1668 L 858 1688 L 848 1712 L 840 1745 L 838 1763 L 837 1764 L 837 1771 L 833 1781 L 830 1804 L 824 1818 L 815 1827 Q 789 1841 767 1859 Q 761 1863 759 1870 Q 759 1876 762 1879 L 791 1902 L 815 1917 Q 824 1923 829 1934 L 832 1949 L 833 1962 L 839 1991 L 842 1998 L 844 2011 L 859 2060 L 874 2094 L 886 2118 L 904 2145 L 917 2168 L 954 2215 L 984 2243 L 1027 2280 L 1066 2307 L 1079 2314 L 1119 2332 L 1127 2334 L 1149 2345 Q 1163 2348 1175 2355 L 1188 2357 L 1215 2364 L 1220 2364 L 1230 2368 L 1236 2368 L 1247 2371 L 1253 2371 L 1266 2374 L 1275 2374 L 1280 2376 L 1288 2376 L 1289 2377 L 1391 2377 L 1392 2376 L 1406 2376 L 1417 2374 L 1426 2374 L 1427 2373 L 1437 2373 L 1446 2370 L 1451 2370 L 1479 2363 L 1493 2361 L 1497 2359 L 1531 2351 L 1541 2347 L 1545 2347 L 1561 2341 L 1576 2333 L 1601 2323 L 1613 2314 L 1639 2301 L 1660 2288 Q 1669 2282 1674 2271 L 1674 2265 L 1671 2257 L 1654 2233 L 1645 2217 L 1615 2178 L 1603 2156 Q 1592 2145 1584 2131 L 1576 2122 L 1573 2121 L 1562 2122 L 1547 2133 Q 1535 2137 1528 2144 L 1489 2162 L 1440 2177 L 1434 2177 L 1417 2181 L 1397 2183 L 1384 2186 L 1372 2186 L 1371 2187 L 1311 2186 L 1294 2183 L 1285 2183 L 1258 2177 L 1234 2168 L 1228 2167 L 1190 2150 L 1176 2143 L 1147 2123 L 1142 2118 L 1128 2105 L 1117 2094 L 1113 2090 L 1086 2060 L 1060 2020 L 1052 1997 L 1047 1989 L 1042 1968 L 1032 1937 L 1031 1924 L 1028 1910 L 1028 1902 L 1027 1901 L 1027 1888 L 1026 1887 L 1027 1834 L 1029 1825 L 1029 1818 L 1035 1792 L 1036 1781 L 1040 1773 L 1048 1746 L 1065 1710 L 1074 1696 L 1082 1687 L 1094 1667 L 1099 1663 L 1110 1650 Q 1133 1625 1161 1606 L 1173 1598 L 1215 1577 L 1250 1565 L 1275 1559 L 1282 1556 L 1300 1555 L 1310 1553 L 1318 1553 L 1319 1552 L 1334 1552 L 1335 1551 L 1385 1552 L 1391 1554 L 1421 1557 L 1448 1563 L 1469 1571 L 1498 1579 L 1547 1605 Q 1556 1614 1570 1619 Q 1578 1620 1582 1616 L 1601 1592 L 1623 1557 L 1648 1524 Q 1662 1499 1679 1478 L 1682 1471 L 1680 1463 L 1671 1453 L 1642 1433 Q 1628 1423 1611 1417 L 1603 1411 L 1565 1394 L 1556 1392 L 1549 1388 L 1517 1377 Q 1501 1375 1489 1370 L 1468 1367 L 1452 1362 L 1436 1359 L 1426 1359 L 1409 1356 L 1390 1355 L 1383 1353 L 1329 1353 Z M 1973 1361 L 1960 1364 L 1951 1369 L 1939 1385 L 1936 1394 L 1935 1406 L 1934 1407 L 1935 1422 L 1941 1436 L 1954 1447 L 1973 1455 Q 1977 1454 1979 1456 L 2027 1456 L 2028 1457 L 2057 1457 L 2058 1456 L 2087 1455 Q 2101 1452 2112 1445 Q 2125 1435 2129 1416 L 2128 1396 L 2124 1383 L 2120 1376 Q 2111 1365 2096 1362 L 1973 1361 Z M 403 1676 L 402 1677 L 393 1677 L 382 1679 L 353 1688 L 333 1698 L 305 1716 Q 281 1735 265 1762 L 256 1779 Q 253 1790 248 1799 L 242 1818 L 238 1838 L 238 1869 L 239 1870 L 239 1878 L 242 1886 L 245 1904 L 251 1922 L 264 1949 L 285 1977 L 309 1998 L 344 2018 Q 361 2026 383 2031 L 394 2033 L 414 2033 L 415 2034 L 429 2034 L 430 2033 L 452 2031 L 471 2026 L 484 2019 L 511 2008 L 536 1989 L 565 1956 L 582 1924 L 593 1914 L 610 1904 L 625 1892 L 643 1881 Q 650 1875 653 1866 L 652 1858 L 643 1843 L 629 1830 L 625 1826 Q 609 1806 589 1791 L 575 1774 L 564 1754 L 541 1727 L 528 1714 L 506 1699 L 476 1686 L 454 1680 L 437 1678 L 436 1677 Q 429 1679 428 1676 L 403 1676 Z M 1972 1817 L 1953 1822 L 1944 1827 L 1934 1838 Q 1926 1850 1923 1867 L 1923 1882 Q 1928 1898 1936 1912 L 1948 1921 L 1969 1929 L 2074 1929 L 2075 1930 L 2213 1930 L 2225 1927 L 2235 1921 L 2250 1904 L 2256 1890 L 2258 1879 L 2256 1857 Q 2253 1845 2247 1838 Q 2240 1828 2228 1823 L 2211 1820 L 2197 1820 L 2196 1819 L 2101 1819 L 2100 1818 L 2047 1818 L 2046 1817 L 2026 1817 L 2025 1818 L 1982 1818 L 1981 1817 L 1972 1817 Z " /><path fill="rgb(0,74,35)" stroke="rgb(0,74,35)" stroke-width="0" opacity="1" d="M 2692.5 1452 L 2741.5 1452 L 2742.5 1453 L 2750.5 1453 L 2751.5 1452 L 2761.5 1452 L 2762.5 1453 L 2775.5 1453 L 2781.5 1455 L 2795.5 1463 L 2803 1470.5 Q 2814.5 1483 2812 1509.5 L 2810 1520.5 L 2807 1527.5 L 2794.5 1543 L 2781.5 1551 L 2771.5 1553 L 2685.5 1553 Q 2664.6 1548.4 2654 1533.5 Q 2643 1520 2645 1493.5 L 2653 1473.5 L 2659.5 1466 L 2677.5 1455 L 2692.5 1452 Z " /><path fill="rgb(214,152,0)" stroke="rgb(214,152,0)" stroke-width="0" opacity="1" d="M 1570.5 104 L 1615.5 104 L 1616.5 105 L 1627.5 105 L 1628.5 106 L 1638.5 106 L 1639.5 107 L 1654.5 107 L 1666.5 110 L 1689.5 112 L 1706.5 117 L 1711.5 117 Q 1719.2 120.8 1730.5 121 Q 1739 125.5 1750.5 127 L 1765.5 132 L 1772.5 136 L 1781.5 138 L 1793.5 144 L 1801.5 146 L 1854.5 172 L 1903.5 203 Q 1945.1 231.9 1979 268.5 L 2008 300.5 L 2049 356.5 L 2070 393.5 L 2096 449.5 L 2115 505.5 L 2125 549.5 L 2126 561.5 L 2129 573.5 L 2129 581.5 L 2130 582.5 L 2132 602.5 L 2133 603.5 L 2133 611.5 L 2134 612.5 L 2135 668.5 L 2134 669.5 L 2134 740.5 L 2136 747.5 L 2139.5 751 L 2144.5 753 L 2154.5 753 L 2155.5 754 L 2177.5 754 L 2178.5 753 L 2208.5 753 L 2209.5 754 L 2402.5 754 Q 2443.6 761.4 2467 786.5 L 2481 807.5 L 2491 835.5 L 2493 864.5 L 2494 865.5 L 2495 883.5 L 2496 884.5 L 2496 894.5 L 2498 901.5 L 2498 912.5 L 2499 913.5 L 2501 940.5 L 2502 941.5 L 2502 951.5 L 2504 957.5 L 2504 964.5 L 2507 980.5 L 2507 990.5 L 2508 991.5 L 2508 1003.5 L 2510 1009.5 L 2511 1027.5 L 2515 1048.5 L 2515 1059.5 L 2517 1066.5 L 2517 1076.5 L 2519 1086.5 L 2521 1115.5 L 2523 1121.5 L 2523 1131.5 L 2524 1132.5 L 2526 1158.5 L 2527 1159.5 L 2527 1170.5 L 2529 1176.5 L 2529 1185.5 L 2533 1207.5 L 2535 1239.5 L 2536 1240.5 L 2536 1248.5 L 2539 1263.5 L 2540 1279.5 L 2544 1299.5 L 2545 1325.5 L 2539.5 1333 Q 2536.3 1335.3 2529.5 1334 L 2528.5 1333 L 2484.5 1333 L 2483.5 1334 L 2390.5 1335 Q 2382.6 1337.1 2379 1343.5 L 2376 1355.5 L 2376 1379.5 L 2377 1380.5 L 2377 1390.5 L 2371.5 1397 L 2366.5 1399 L 2332.5 1399 L 2323 1393.5 L 2321 1389.5 L 2321 1371.5 L 2322 1370.5 L 2322 1319.5 L 2321 1318.5 L 2321 1303.5 L 2320 1302.5 L 2319 1285.5 L 2313 1264.5 Q 2303.8 1242.2 2287.5 1227 Q 2277.6 1218.4 2263.5 1214 L 2257 1207.5 L 2248 1177.5 L 2239 1160.5 Q 2229.2 1143.8 2214.5 1132 L 2184.5 1112 L 2165.5 1104 L 2149.5 1099 L 2130.5 1098 L 2120.5 1096 L 2104.5 1096 L 2103.5 1095 L 2075.5 1094 L 2074.5 1093 L 2062.5 1093 L 2061.5 1092 L 2044.5 1092 L 2033.5 1090 L 1992.5 1088 L 1984.5 1086 L 1969.5 1086 L 1968.5 1085 L 1957.5 1085 L 1956.5 1084 L 1940.5 1084 L 1939.5 1083 L 1925.5 1083 L 1924.5 1082 L 1904.5 1082 L 1903.5 1081 L 1884.5 1081 L 1883.5 1080 L 1866.5 1080 L 1865.5 1079 L 1855.5 1079 L 1844.5 1077 L 1828.5 1077 L 1818.5 1075 L 1800.5 1075 L 1799.5 1074 L 1753.5 1072 L 1752.5 1071 L 1741.5 1071 L 1740.5 1070 L 1730.5 1070 L 1729.5 1069 L 1715.5 1069 L 1714.5 1068 L 1662.5 1066 L 1661.5 1065 L 1634.5 1064 L 1633.5 1063 L 1622.5 1063 L 1621.5 1062 L 1589.5 1061 L 1588.5 1060 L 1577.5 1060 L 1576.5 1059 L 1565.5 1059 L 1564.5 1058 L 1527.5 1057 L 1526.5 1056 L 1510.5 1056 L 1509.5 1055 L 1496.5 1055 L 1495.5 1054 L 1447.5 1053 L 1446.5 1052 L 1419.5 1051 L 1418.5 1050 L 1408.5 1050 L 1407.5 1049 L 1347.5 1047 L 1346.5 1046 L 1315.5 1045 L 1314.5 1044 L 1300.5 1044 L 1299.5 1043 L 1282.5 1043 L 1281.5 1042 L 1256.5 1041 L 1255.5 1040 L 1213.5 1039 L 1212.5 1038 L 1151.5 1037 L 1150.5 1036 L 1096.5 1034 L 1095.5 1033 L 1081.5 1033 L 1080.5 1032 L 1054.5 1032 L 1053.5 1031 L 993.5 1029 L 992.5 1028 L 975.5 1028 L 974.5 1027 L 928.5 1026 L 927.5 1025 L 916.5 1025 L 915.5 1024 L 857.5 1022 L 856.5 1021 L 782.5 1020 L 781.5 1021 L 763.5 1022 L 762.5 1023 L 722.5 1029 L 690.5 1040 L 678.5 1042 L 672 1036.5 L 671 1034.5 L 671 1019.5 L 672 1018.5 L 672 1007.5 L 673 1006.5 L 673 987.5 L 674 986.5 L 675 957.5 L 677 950.5 L 677 935.5 L 678 934.5 L 679 910.5 L 680 909.5 L 681 871.5 L 682 870.5 L 684 836.5 Q 691.3 799.3 715.5 779 Q 725.7 769.2 739.5 763 L 757.5 757 L 771.5 754 L 1003.5 754 Q 1009.6 755.4 1012 760.5 L 1013 763.5 L 1013 783.5 L 1014 784.5 L 1014 879.5 L 1015 880.5 L 1016 891.5 L 1024 918.5 L 1029 929.5 Q 1037.6 943.4 1049.5 954 L 1064.5 965 L 1069.5 966 L 1085.5 974 L 1102.5 977 L 1133.5 977 L 1145.5 974 L 1154 967.5 Q 1154.8 961.8 1150.5 961 L 1132.5 957 L 1118.5 949 L 1093.5 939 Q 1075.4 928.1 1062 912.5 L 1053 896.5 L 1048 878.5 L 1048 852.5 L 1047 851.5 L 1047 776.5 L 1048 775.5 L 1048 756.5 Q 1045.5 755 1047 749.5 L 1048 748.5 L 1048 644.5 L 1049 643.5 L 1049 609.5 L 1050 608.5 L 1050 597.5 L 1052 587.5 L 1052 575.5 L 1055 564.5 L 1056 549.5 L 1061 529.5 L 1062 519.5 L 1074 478.5 L 1078 471.5 L 1081 460.5 L 1098 418.5 L 1106 405.5 L 1110 394.5 L 1124 370.5 L 1131 361.5 L 1134 354.5 L 1172 302.5 L 1217.5 254 L 1268.5 211 L 1299.5 190 L 1332.5 170 L 1359.5 157 L 1366.5 155 L 1376.5 149 L 1397.5 142 L 1426.5 130 L 1436.5 128 L 1460.5 120 L 1474.5 118 L 1498.5 112 L 1517.5 110 L 1523.5 108 L 1538.5 107 L 1539.5 106 L 1550.5 106 L 1551.5 105 L 1569.5 105 L 1570.5 104 Z M 1575 106 L 1574 107 L 1554 107 L 1553 108 L 1540 108 L 1539 109 L 1523 110 L 1468 120 L 1412 137 L 1402 142 L 1381 149 L 1336 170 L 1287 200 L 1245 232 L 1217 257 L 1173 304 L 1138 351 L 1111 396 L 1093 433 L 1066 509 L 1058 546 L 1056 568 L 1053 581 L 1052 604 L 1051 605 L 1050 657 L 1049 658 L 1049 858 L 1050 859 L 1050 878 L 1055 896 L 1063 912 L 1075 923 L 1094 937 L 1135 956 L 1157 960 Q 1160 961 1159 966 Q 1154 973 1145 976 L 1126 980 L 1107 980 L 1083 975 L 1062 965 L 1045 952 L 1031 937 L 1026 929 Q 1018 912 1014 893 L 1013 881 L 1012 880 L 1012 807 L 1011 806 L 1011 794 L 1012 793 L 1011 765 L 1009 761 L 1002 756 L 772 756 L 753 760 L 741 764 Q 725 772 713 784 Q 694 802 687 832 L 686 846 L 685 847 L 684 873 L 683 874 L 682 920 L 681 921 L 681 932 L 680 933 L 680 950 L 678 956 L 676 992 L 675 993 L 675 1006 L 673 1012 L 673 1033 L 674 1035 L 679 1038 L 688 1038 L 702 1033 L 733 1025 L 744 1024 L 756 1021 L 780 1019 L 781 1018 L 838 1018 L 839 1019 L 856 1019 L 857 1020 L 882 1020 L 883 1021 L 920 1022 L 921 1023 L 950 1024 L 951 1025 L 970 1025 L 971 1026 L 984 1026 L 985 1027 L 1024 1028 L 1025 1029 L 1040 1029 L 1041 1030 L 1074 1030 L 1075 1031 L 1090 1031 L 1091 1032 L 1111 1032 L 1112 1033 L 1124 1033 L 1125 1034 L 1144 1034 L 1145 1035 L 1275 1039 L 1276 1040 L 1288 1040 L 1289 1041 L 1316 1042 L 1317 1043 L 1331 1043 L 1339 1045 L 1358 1045 L 1359 1046 L 1374 1046 L 1375 1047 L 1401 1047 L 1402 1048 L 1426 1049 L 1427 1050 L 1459 1051 L 1460 1052 L 1477 1052 L 1478 1053 L 1498 1053 L 1499 1054 L 1519 1054 L 1520 1055 L 1536 1055 L 1537 1056 L 1573 1057 L 1574 1058 L 1585 1058 L 1586 1059 L 1602 1059 L 1603 1060 L 1618 1060 L 1619 1061 L 1630 1061 L 1631 1062 L 1642 1062 L 1643 1063 L 1658 1063 L 1659 1064 L 1669 1064 L 1670 1065 L 1710 1066 L 1711 1067 L 1750 1069 L 1751 1070 L 1768 1070 L 1769 1071 L 1799 1072 L 1800 1073 L 1815 1073 L 1826 1075 L 1862 1077 L 1863 1078 L 1896 1079 L 1897 1080 L 1912 1080 L 1913 1081 L 1933 1081 L 1934 1082 L 1951 1082 L 1952 1083 L 1963 1083 L 1964 1084 L 1975 1084 L 1976 1085 L 1989 1085 L 1999 1087 L 2042 1089 L 2051 1091 L 2071 1091 L 2072 1092 L 2087 1092 L 2088 1093 L 2122 1094 L 2132 1096 L 2150 1097 Q 2157 1101 2167 1102 L 2187 1111 L 2213 1128 Q 2229 1141 2240 1159 L 2248 1174 L 2259 1207 L 2266 1213 L 2288 1225 L 2295 1233 L 2310 1255 L 2315 1266 L 2321 1286 L 2322 1305 L 2323 1306 L 2323 1389 L 2324 1391 L 2334 1397 L 2367 1397 L 2371 1395 L 2375 1390 L 2375 1350 L 2379 1341 L 2386 1335 L 2395 1333 L 2537 1332 L 2539 1331 Q 2543 1328 2544 1323 L 2543 1312 L 2542 1311 L 2542 1297 L 2538 1276 L 2538 1268 L 2535 1251 L 2535 1244 L 2534 1243 L 2534 1232 L 2532 1225 L 2532 1215 L 2528 1192 L 2528 1185 L 2527 1184 L 2527 1175 L 2525 1166 L 2525 1154 L 2522 1137 L 2522 1130 L 2521 1129 L 2521 1121 L 2519 1114 L 2516 1073 L 2515 1072 L 2514 1056 L 2513 1055 L 2513 1046 L 2510 1032 L 2509 1013 L 2507 1007 L 2506 986 L 2503 970 L 2502 956 L 2500 950 L 2500 938 L 2498 927 L 2498 918 L 2497 917 L 2497 907 L 2494 892 L 2494 882 L 2492 872 L 2492 863 L 2491 862 L 2490 842 L 2488 832 L 2481 812 L 2470 793 Q 2456 776 2437 766 L 2423 760 L 2403 756 L 2152 755 Q 2150 753 2145 754 L 2138 751 L 2133 745 L 2133 717 L 2132 716 L 2132 672 L 2133 671 L 2132 615 L 2131 614 L 2131 605 L 2128 588 L 2127 573 L 2116 516 L 2100 465 L 2092 448 L 2089 438 Q 2079 420 2071 400 L 2047 357 L 2004 299 L 1974 266 L 1930 225 L 1878 188 L 1855 174 L 1821 157 L 1779 139 L 1731 123 L 1690 114 L 1667 112 L 1656 109 L 1639 109 L 1638 108 L 1625 108 L 1624 107 L 1609 107 L 1608 106 L 1575 106 Z " /><path fill="rgb(214,152,0)" stroke="rgb(214,152,0)" stroke-width="0" opacity="1" d="M 1576.5 255 L 1609.5 255 L 1610.5 256 L 1623.5 256 L 1624.5 257 L 1633.5 257 L 1642.5 259 L 1658.5 260 L 1707.5 272 L 1718.5 277 L 1724.5 278 L 1751.5 288 L 1779.5 302 L 1819.5 327 L 1845.5 348 L 1874 375.5 Q 1900.5 404 1922 437.5 L 1944 476.5 L 1962 517.5 Q 1964.8 534.7 1971 548.5 L 1975 568.5 L 1979 579.5 L 1979 585.5 L 1982 598.5 L 1984 626.5 L 1985 627.5 L 1985 647.5 L 1986 648.5 L 1986 683.5 L 1985 684.5 L 1985 728.5 L 1986 729.5 L 1986 754.5 L 1985 755.5 L 1985 768.5 L 1986 769.5 L 1986 789.5 L 1985 790.5 L 1985 871.5 L 1986 872.5 L 1987 885.5 L 1992 900.5 L 2003 916.5 L 2012.5 926 Q 2025.3 936.2 2043.5 941 L 2067.5 943 L 2077.5 941 L 2095.5 934 Q 2108 926 2117 914.5 L 2130 892.5 L 2134 879.5 L 2135 871.5 L 2139 861.5 L 2156.5 837 L 2160.5 836 Q 2164.8 838.8 2166 844.5 L 2166 871.5 L 2164 879.5 L 2163 894.5 L 2154 920.5 L 2140 944.5 L 2129.5 955 Q 2113.9 968.4 2092.5 976 L 2072.5 980 L 2043.5 980 L 2018.5 974 L 1995.5 962 L 1971 939.5 L 1957 912.5 L 1952 895.5 L 1951 881.5 L 1950 880.5 L 1950 764.5 Q 1948.8 758.8 1944.5 756 L 1939.5 754 L 1756.5 753 L 1755.5 752 L 1391.5 751 L 1390.5 752 L 1214.5 752 L 1213.5 751 L 1202.5 750 L 1198 745.5 L 1196 738.5 L 1196 733.5 L 1197 728.5 L 1196 727.5 L 1196 664.5 L 1197 663.5 L 1197 621.5 L 1198 620.5 L 1198 606.5 L 1199 605.5 L 1199 597.5 L 1202 584.5 L 1202 578.5 L 1206 567.5 L 1207 557.5 L 1212 540.5 L 1219 520.5 L 1222 515.5 L 1226 501.5 L 1245 461.5 L 1261 434.5 L 1289 396.5 L 1330.5 355 L 1367.5 326 L 1392.5 310 L 1430.5 290 Q 1440.9 288.4 1447.5 283 L 1453.5 282 L 1477.5 273 L 1495.5 269 L 1517.5 262 L 1541.5 259 L 1542.5 258 L 1575.5 256 L 1576.5 255 Z M 1579 257 L 1578 258 L 1561 258 L 1560 259 L 1540 260 L 1539 261 L 1532 261 L 1516 264 L 1495 271 L 1487 272 L 1431 292 L 1410 302 L 1369 327 L 1338 351 L 1322 366 L 1291 397 Q 1287 405 1280 411 L 1254 449 L 1235 486 L 1232 495 L 1226 506 L 1224 515 L 1221 520 L 1209 556 L 1207 569 L 1204 576 L 1204 583 L 1200 601 L 1199 628 L 1198 629 L 1198 742 L 1200 746 L 1206 749 L 1211 750 L 1492 750 L 1493 749 L 1941 752 L 1949 756 L 1952 763 L 1952 826 L 1951 827 L 1951 878 L 1952 879 L 1954 899 L 1958 911 L 1970 935 L 1978 945 Q 1995 963 2021 973 L 2049 979 L 2074 978 L 2094 974 Q 2113 967 2128 955 L 2139 944 Q 2149 930 2156 913 L 2161 895 L 2161 887 L 2164 870 L 2164 845 L 2161 839 L 2156 840 L 2138 868 L 2135 883 L 2130 898 L 2120 915 Q 2110 927 2096 936 L 2076 943 L 2065 945 Q 2058 943 2048 944 L 2036 941 Q 2019 935 2008 924 Q 1996 913 1988 898 L 1983 875 L 1983 843 L 1984 842 L 1984 769 L 1983 768 L 1983 749 L 1984 748 L 1984 734 L 1983 733 L 1983 720 L 1984 719 L 1984 646 L 1983 645 L 1982 611 L 1981 610 L 1980 596 L 1976 581 L 1976 576 L 1973 568 L 1971 555 L 1963 531 L 1962 523 L 1947 488 L 1920 438 Q 1900 406 1875 379 L 1845 349 L 1818 328 L 1774 300 L 1763 296 L 1750 289 L 1725 280 L 1719 279 L 1706 273 L 1661 262 L 1644 261 L 1635 259 L 1626 259 L 1625 258 L 1610 258 L 1609 257 L 1579 257 Z " /><path fill="rgb(214,152,0)" stroke="rgb(214,152,0)" stroke-width="0" opacity="1" d="M 774.5 1084 L 812.5 1085 L 813.5 1086 L 838.5 1086 L 839.5 1087 L 883.5 1089 L 884.5 1090 L 897.5 1090 L 898.5 1091 L 946.5 1092 L 954.5 1094 L 975.5 1094 L 976.5 1095 L 996.5 1095 L 997.5 1096 L 1011.5 1096 L 1012.5 1097 L 1054.5 1098 L 1065.5 1100 L 1085.5 1100 L 1086.5 1101 L 1111.5 1102 L 1117.5 1104 L 1165.5 1105 L 1175.5 1107 L 1196.5 1107 L 1197.5 1108 L 1214.5 1108 L 1215.5 1109 L 1274.5 1110 L 1283.5 1112 L 1304.5 1112 L 1305.5 1113 L 1325.5 1113 L 1326.5 1114 L 1336.5 1114 L 1337.5 1115 L 1382.5 1116 L 1390.5 1118 L 1482.5 1121 L 1483.5 1122 L 1495.5 1122 L 1504.5 1124 L 1559.5 1125 L 1560.5 1126 L 1598.5 1126 L 1599.5 1127 L 1657.5 1129 L 1665.5 1131 L 1684.5 1131 L 1685.5 1132 L 1737.5 1133 L 1738.5 1134 L 1758.5 1134 L 1759.5 1135 L 1774.5 1135 L 1775.5 1136 L 1803.5 1136 L 1804.5 1137 L 1823.5 1137 L 1824.5 1138 L 1837.5 1138 L 1838.5 1139 L 1879.5 1140 L 1880.5 1141 L 1895.5 1141 L 1896.5 1142 L 1911.5 1142 L 1912.5 1143 L 1984.5 1145 L 1985.5 1146 L 2003.5 1146 L 2004.5 1147 L 2020.5 1147 L 2021.5 1148 L 2040.5 1148 L 2047.5 1150 L 2060.5 1150 L 2061.5 1151 L 2083.5 1152 L 2084.5 1153 L 2124.5 1155 L 2125.5 1156 L 2147.5 1158 L 2172.5 1171 L 2179 1176.5 L 2190 1190.5 L 2195 1201.5 L 2195 1206.5 L 2191.5 1212 L 2186.5 1215 L 2175.5 1218 L 2163.5 1219 L 2156.5 1221 L 2149.5 1221 L 2148.5 1222 L 2132.5 1222 L 2131.5 1221 L 2107.5 1221 L 2106.5 1222 L 2078.5 1223 L 2077.5 1224 L 2064.5 1225 L 2060.5 1227 L 2052.5 1227 L 2046.5 1224 L 2042.5 1224 L 2038 1227.5 Q 2032 1234.5 2034 1249.5 Q 2038.5 1260.5 2046.5 1268 L 2060.5 1273 L 2228.5 1273 Q 2240.5 1276 2247 1284.5 Q 2252.9 1291.1 2255 1301.5 L 2256 1339.5 L 2257 1340.5 L 2257 1370.5 L 2258 1371.5 L 2258 1427.5 L 2261 1441.5 L 2265.5 1447 L 2279.5 1453 L 2347.5 1453 L 2348.5 1452 L 2373.5 1452 L 2374.5 1453 L 2447.5 1453 L 2448.5 1452 L 2468.5 1452 Q 2470.3 1454.7 2476.5 1453 L 2477.5 1452 L 2490.5 1452 Q 2492 1454.5 2497.5 1453 L 2498.5 1452 L 2537.5 1452 L 2557.5 1460 L 2569 1470.5 Q 2575.7 1478.3 2579 1489.5 L 2581 1510.5 Q 2576.5 1536.5 2558.5 1549 L 2548.5 1554 L 2537.5 1555 L 2536.5 1556 L 2504.5 1556 L 2503.5 1557 L 2465.5 1558 L 2460 1561 Q 2456.9 1564.6 2458 1573.5 L 2460 1579.5 L 2460 1598.5 L 2455 1622.5 Q 2450.6 1634.1 2441.5 1641 L 2419.5 1652 L 2404.5 1653 L 2403.5 1654 L 2371.5 1654 L 2370.5 1653 L 2284.5 1653 L 2283.5 1654 L 2252.5 1654 L 2241.5 1656 L 2185.5 1656 L 2176.5 1654 L 2172 1657.5 L 2171 1665.5 Q 2174.8 1676.2 2183.5 1682 Q 2192.4 1688.1 2204.5 1691 L 2289.5 1691 L 2290.5 1692 L 2319.5 1692 L 2320.5 1691 L 2438.5 1691 L 2439.5 1690 L 2451.5 1690 L 2452.5 1689 L 2466.5 1689 L 2467.5 1690 L 2496.5 1691 L 2497.5 1692 L 2642.5 1692 L 2643.5 1691 L 2718.5 1691 L 2719.5 1692 L 2761.5 1692 L 2765.5 1693 Q 2783.8 1698.7 2795 1711.5 L 2802 1722.5 L 2806 1734.5 L 2808 1744.5 L 2808 1756.5 L 2806 1766.5 L 2802 1776.5 Q 2795.4 1788.9 2784.5 1797 L 2775.5 1802 L 2758.5 1807 L 2727.5 1807 L 2726.5 1808 L 2416.5 1809 L 2415.5 1810 L 2403.5 1811 L 2388.5 1817 Q 2377.8 1823.3 2370 1832.5 L 2358 1857.5 L 2357 1862.5 L 2357 1880.5 Q 2362.5 1905 2378.5 1919 Q 2387.9 1929.1 2403.5 1933 Q 2408.3 1931.7 2409.5 1934 L 2457.5 1934 L 2458.5 1933 L 2583.5 1933 L 2584.5 1934 L 2643.5 1935 L 2644.5 1934 L 2709.5 1934 L 2710.5 1935 L 2720.5 1935 L 2735.5 1939 Q 2748.3 1945.2 2757 1955.5 L 2767 1975.5 L 2769 1994.5 L 2768 1995.5 L 2768 2003.5 L 2765 2013.5 L 2756 2029.5 L 2750.5 2035 L 2735.5 2044 L 2717.5 2048 L 2671.5 2048 L 2670.5 2049 L 2647.5 2049 L 2646.5 2050 L 2571.5 2051 L 2570.5 2052 L 2475.5 2052 L 2474.5 2053 L 2352.5 2054 L 2342.5 2056 L 2336 2060.5 L 2334 2064.5 L 2334 2086.5 L 2335 2087.5 L 2335 2113.5 L 2333 2120.5 L 2327.5 2126 L 2317.5 2128 L 2276.5 2128 L 2275.5 2127 L 2256.5 2127 L 2255.5 2128 L 2235.5 2128 L 2234.5 2129 L 2207.5 2130 L 2206.5 2131 L 2194.5 2131 L 2193.5 2132 L 2178.5 2132 L 2177.5 2133 L 2158.5 2133 L 2149.5 2135 L 2049.5 2138 L 2048.5 2137 L 2016.5 2136 L 2013 2138.5 L 2012 2143.5 Q 2015.5 2158 2026.5 2165 L 2047.5 2175 L 2147.5 2176 L 2148.5 2175 L 2199.5 2175 L 2200.5 2174 L 2208.5 2174 L 2209.5 2175 L 2324.5 2175 L 2325.5 2176 L 2334.5 2176 L 2335.5 2175 L 2371.5 2175 Q 2395.4 2180.1 2407 2197.5 L 2414 2213.5 L 2416 2232.5 L 2415 2233.5 L 2415 2241.5 L 2412 2251.5 Q 2407.7 2263.7 2398.5 2271 Q 2388.1 2280.6 2372.5 2285 L 2367.5 2286 L 2338.5 2286 Q 2337.3 2288.3 2332.5 2287 Q 2325.1 2288.1 2322 2293.5 L 2324 2301.5 L 2324 2312.5 L 2323 2313.5 L 2321 2332.5 L 2315 2350.5 L 2303 2372.5 L 2289.5 2386 L 2275.5 2396 L 2255.5 2405 L 2239.5 2407 L 2235.5 2409 L 2211.5 2414 L 2201.5 2418 L 2195.5 2418 L 2183.5 2421 L 2172.5 2425 L 2155.5 2427 L 2145.5 2430 L 2131.5 2431 Q 2119.2 2435.7 2103.5 2437 L 2091.5 2442 L 2079.5 2443 L 2055.5 2448 L 2048.5 2448 L 2038.5 2452 L 2031.5 2452 L 2008.5 2456 L 1983.5 2463 L 1972.5 2464 L 1954.5 2469 L 1939.5 2470 L 1924.5 2474 L 1914.5 2474 L 1913.5 2475 L 1889.5 2478 L 1874.5 2483 L 1861.5 2484 L 1841.5 2489 L 1829.5 2490 L 1820.5 2494 Q 1802.5 2495.5 1787.5 2500 L 1774.5 2501 L 1762.5 2505 L 1756.5 2505 L 1732.5 2510 L 1724.5 2510 L 1711.5 2514 L 1696.5 2515 L 1655.5 2525 L 1648.5 2525 L 1634.5 2528 L 1614.5 2530 L 1599.5 2535 L 1553.5 2540 L 1548.5 2542 L 1526.5 2545 L 1512.5 2549 L 1499.5 2550 L 1491.5 2553 L 1451.5 2558 L 1433.5 2562 L 1425.5 2562 L 1402.5 2566 L 1394.5 2566 L 1382.5 2570 L 1373.5 2570 L 1350.5 2574 L 1336.5 2575 L 1327.5 2578 L 1318.5 2578 L 1297.5 2582 L 1281.5 2583 L 1276.5 2585 L 1259.5 2586 L 1202.5 2596 L 1188.5 2597 L 1187.5 2598 L 1176.5 2598 L 1163.5 2602 L 1146.5 2603 L 1145.5 2604 L 1129.5 2605 L 1128.5 2606 L 1119.5 2606 L 1112.5 2608 L 1094.5 2609 L 1071.5 2613 L 1062.5 2613 L 1052.5 2616 L 1043.5 2616 L 1020.5 2620 L 1013.5 2620 L 1002.5 2623 L 966.5 2626 L 965.5 2627 L 955.5 2627 L 943.5 2630 L 932.5 2630 L 931.5 2631 L 922.5 2631 L 913.5 2633 L 902.5 2633 L 901.5 2634 L 875.5 2636 L 874.5 2637 L 842.5 2640 L 835.5 2642 L 824.5 2642 L 823.5 2643 L 810.5 2643 L 809.5 2644 L 740.5 2644 L 739.5 2643 L 731.5 2643 L 730.5 2642 L 722.5 2642 L 721.5 2641 L 701.5 2639 L 689.5 2635 L 681.5 2634 L 665.5 2629 L 645.5 2620 L 628.5 2615 L 594.5 2597 L 564.5 2577 L 535 2548.5 L 519 2531.5 L 511 2519.5 L 484 2491.5 L 458 2459.5 L 421 2420.5 L 401 2394.5 L 339 2326.5 L 304 2284.5 L 270 2250.5 L 242 2216.5 L 186 2157.5 L 167 2133.5 L 135.5 2100 L 131 2096.5 L 115 2076.5 L 70 2027.5 L 54 1998.5 L 45 1985.5 L 25 1934.5 L 24 1924.5 L 17 1897.5 L 17 1892.5 L 13 1880.5 L 12 1875.5 L 11 1829.5 L 12 1828.5 L 12 1810.5 L 13 1809.5 L 15 1779.5 L 19 1770.5 L 23 1748.5 L 35 1711.5 L 42 1700.5 L 57 1668.5 Q 70.3 1652.3 80 1632.5 L 87.5 1625 L 95 1618.5 L 110.5 1599 L 129 1584.5 L 133.5 1579 L 148 1565.5 L 158.5 1554 L 181 1533.5 L 191.5 1521 L 206 1507.5 L 226.5 1486 L 238 1476.5 L 247.5 1466 L 278 1437.5 L 283.5 1431 L 289.5 1427 L 314 1402.5 L 321.5 1394 L 327 1389.5 L 332.5 1383 L 350 1367.5 L 353 1362.5 L 374.5 1340 L 381.5 1336 L 403 1314.5 L 409.5 1307 L 424 1293.5 L 445.5 1270 L 452.5 1265 L 485 1232.5 L 495.5 1221 L 514 1203.5 L 526.5 1190 L 570.5 1149 L 580.5 1144 L 609.5 1125 L 628.5 1115 L 662.5 1102 L 688.5 1097 L 709.5 1090 L 726.5 1088 L 736.5 1085 L 773.5 1085 L 774.5 1084 Z M 1206 1151 L 1205 1152 L 1197 1152 L 1188 1156 L 1179 1169 L 1170 1174 L 1116 1174 L 1115 1173 L 922 1173 L 921 1172 L 809 1172 L 808 1171 L 758 1172 L 757 1173 L 735 1175 L 731 1177 L 716 1180 L 696 1188 L 678 1193 L 664 1200 Q 649 1213 631 1222 Q 623 1227 619 1237 L 600 1256 L 597 1261 L 553 1304 L 545 1310 L 535 1322 L 518 1336 L 509 1347 L 486 1368 L 472 1383 L 462 1392 L 458 1397 L 454 1400 L 447 1408 Q 429 1428 408 1445 L 397 1458 L 383 1471 L 359 1496 L 340 1513 L 307 1548 L 298 1555 L 294 1560 L 255 1597 L 237 1616 L 231 1621 L 204 1649 L 188 1663 L 151 1703 L 141 1719 L 129 1743 L 120 1765 L 112 1796 L 111 1811 L 110 1812 L 110 1824 L 109 1825 L 109 1835 L 108 1836 L 108 1851 L 109 1852 L 109 1863 L 110 1864 L 111 1878 L 115 1889 L 121 1914 Q 126 1923 129 1936 L 137 1952 L 158 1982 L 171 1993 L 186 2011 L 193 2016 L 235 2063 L 255 2088 L 314 2151 L 332 2174 L 361 2204 L 363 2208 L 404 2252 L 440 2294 L 462 2316 L 495 2356 L 502 2361 L 535 2400 L 574 2441 L 595 2468 L 625 2497 L 652 2516 L 673 2527 L 716 2541 L 728 2542 L 739 2545 L 756 2546 L 765 2548 L 776 2548 L 777 2549 L 797 2548 L 807 2546 L 815 2546 L 816 2545 L 824 2545 L 825 2544 L 842 2543 L 843 2542 L 887 2540 L 898 2538 L 909 2538 L 910 2537 L 950 2535 L 960 2533 L 984 2532 L 985 2531 L 999 2531 L 1015 2528 L 1026 2528 L 1037 2526 L 1054 2526 L 1067 2523 L 1080 2523 L 1090 2521 L 1129 2519 L 1130 2518 L 1140 2518 L 1141 2517 L 1152 2517 L 1153 2516 L 1171 2516 L 1177 2518 Q 1182 2521 1184 2529 Q 1187 2534 1195 2536 L 1216 2536 L 1226 2534 L 1236 2534 L 1237 2533 L 1262 2531 L 1263 2530 L 1275 2530 L 1281 2528 L 1289 2528 L 1290 2527 L 1298 2527 L 1299 2526 L 1331 2523 L 1337 2521 L 1346 2521 L 1363 2518 L 1370 2518 L 1371 2517 L 1387 2516 L 1388 2515 L 1414 2512 L 1431 2508 L 1438 2508 L 1450 2505 L 1463 2504 L 1475 2501 L 1492 2500 L 1505 2496 L 1512 2496 L 1533 2491 L 1546 2490 L 1556 2487 L 1567 2486 L 1589 2480 L 1603 2479 L 1612 2475 L 1628 2473 L 1653 2467 L 1658 2467 L 1700 2457 L 1711 2456 L 1737 2449 L 1774 2443 L 1792 2438 L 1819 2433 L 1833 2427 L 1857 2424 L 1892 2416 L 1904 2412 L 1931 2407 L 1941 2403 L 1962 2400 L 1999 2390 L 2003 2390 L 2007 2388 L 2037 2382 L 2051 2377 L 2079 2372 L 2125 2359 L 2149 2355 L 2165 2349 L 2185 2346 L 2198 2340 L 2205 2331 L 2209 2308 L 2215 2295 L 2224 2287 L 2236 2284 L 2312 2284 L 2313 2285 L 2326 2285 L 2327 2284 L 2339 2284 L 2340 2285 L 2364 2285 Q 2365 2283 2371 2284 L 2390 2276 L 2399 2269 Q 2406 2264 2409 2255 L 2412 2247 L 2414 2236 L 2414 2225 L 2412 2214 Q 2408 2202 2401 2194 L 2386 2181 L 2374 2177 L 2048 2177 Q 2031 2173 2021 2164 Q 2004 2152 1999 2129 L 1999 2105 L 2001 2098 L 2010 2082 L 2025 2068 L 2049 2057 L 2061 2057 L 2062 2056 L 2101 2056 L 2102 2055 L 2158 2055 L 2159 2054 L 2337 2054 L 2346 2052 L 2359 2052 L 2360 2053 L 2365 2052 L 2427 2052 L 2428 2051 L 2536 2051 L 2537 2050 L 2623 2049 L 2624 2048 L 2650 2048 L 2651 2047 L 2712 2047 L 2734 2043 L 2749 2034 Q 2763 2022 2767 1999 L 2767 1986 L 2765 1975 L 2756 1958 Q 2748 1948 2738 1942 L 2727 1938 L 2716 1937 L 2715 1936 L 2610 1936 L 2609 1935 L 2561 1935 L 2560 1934 L 2529 1934 L 2528 1935 L 2500 1935 L 2499 1934 L 2457 1935 L 2456 1936 L 2419 1936 L 2418 1935 L 2407 1935 Q 2392 1932 2383 1925 Q 2362 1909 2355 1879 L 2355 1864 L 2357 1855 L 2370 1831 Q 2384 1814 2409 1808 L 2427 1808 L 2428 1807 L 2608 1807 L 2609 1806 L 2761 1805 Q 2774 1802 2785 1795 Q 2801 1783 2806 1760 L 2806 1743 L 2801 1725 L 2795 1715 L 2779 1700 L 2767 1695 L 2755 1694 L 2754 1693 L 2745 1693 L 2744 1694 L 2734 1694 L 2733 1693 L 2652 1693 L 2651 1694 L 2485 1694 L 2476 1692 L 2447 1692 L 2446 1693 L 2430 1693 L 2429 1694 L 2399 1694 L 2398 1693 L 2336 1693 L 2335 1694 L 2205 1693 L 2190 1688 L 2183 1684 L 2168 1668 L 2161 1646 L 2162 1627 Q 2164 1615 2170 1608 Q 2175 1602 2183 1599 L 2260 1600 L 2268 1602 L 2385 1602 L 2386 1603 L 2415 1603 L 2416 1602 L 2425 1602 L 2431 1600 L 2448 1600 L 2450 1599 L 2454 1595 L 2457 1586 L 2457 1575 L 2456 1574 L 2457 1565 L 2459 1560 L 2466 1557 L 2484 1556 L 2485 1555 L 2533 1555 L 2534 1554 L 2544 1554 Q 2555 1552 2562 1545 Q 2575 1534 2579 1514 L 2579 1502 L 2578 1501 L 2577 1489 Q 2574 1478 2568 1472 Q 2558 1460 2542 1455 L 2537 1454 L 2489 1454 L 2488 1453 L 2483 1454 L 2338 1454 L 2337 1455 L 2321 1455 L 2320 1454 L 2312 1454 L 2311 1455 L 2278 1454 L 2266 1448 L 2259 1439 L 2257 1429 L 2257 1421 L 2256 1420 L 2256 1368 L 2255 1367 L 2255 1333 L 2254 1332 L 2254 1321 L 2253 1320 L 2253 1299 L 2248 1288 L 2238 1278 L 2231 1275 Q 2224 1277 2223 1274 L 2170 1274 L 2169 1275 L 2156 1275 L 2155 1274 L 2061 1274 L 2047 1269 Q 2035 1260 2030 1245 L 2030 1228 L 2033 1216 Q 2034 1207 2030 1204 L 2022 1196 L 2006 1191 L 1958 1190 L 1957 1189 L 1939 1189 L 1938 1188 L 1876 1187 L 1875 1186 L 1829 1186 L 1820 1184 L 1793 1184 L 1792 1183 L 1768 1183 L 1767 1182 L 1725 1182 L 1714 1180 L 1667 1178 L 1659 1176 L 1647 1176 L 1646 1175 L 1612 1174 L 1602 1172 L 1569 1171 L 1568 1170 L 1543 1169 L 1542 1168 L 1517 1167 L 1516 1166 L 1502 1166 L 1491 1164 L 1466 1164 L 1465 1163 L 1410 1161 L 1409 1160 L 1390 1160 L 1382 1158 L 1354 1158 L 1353 1157 L 1311 1156 L 1310 1155 L 1288 1155 L 1287 1154 L 1257 1154 L 1256 1153 L 1229 1152 L 1228 1151 L 1206 1151 Z " /><path fill="rgb(214,152,0)" stroke="rgb(214,152,0)" stroke-width="0" opacity="1" d="M 1328.5 1353 L 1382.5 1353 L 1389.5 1355 L 1408.5 1356 L 1425.5 1359 L 1435.5 1359 L 1451.5 1362 L 1467.5 1367 L 1488.5 1370 Q 1500.9 1375.1 1516.5 1377 L 1548.5 1388 L 1555.5 1392 L 1564.5 1394 L 1602.5 1411 L 1610.5 1417 Q 1627.8 1423.2 1641.5 1433 L 1670.5 1453 L 1680 1462.5 L 1682 1470.5 L 1679 1477.5 Q 1661.7 1498.7 1648 1523.5 L 1623 1556.5 L 1601 1591.5 L 1581.5 1616 Q 1578 1620 1569.5 1619 Q 1556 1614 1546.5 1605 L 1497.5 1579 L 1468.5 1571 L 1447.5 1563 L 1420.5 1557 L 1390.5 1554 L 1384.5 1552 L 1334.5 1551 L 1333.5 1552 L 1318.5 1552 L 1317.5 1553 L 1309.5 1553 L 1299.5 1555 L 1281.5 1556 L 1274.5 1559 L 1249.5 1565 L 1214.5 1577 L 1172.5 1598 L 1160.5 1606 Q 1132.8 1625.3 1110 1649.5 L 1098.5 1663 L 1094 1666.5 L 1082 1686.5 L 1074 1695.5 L 1065 1709.5 L 1048 1745.5 L 1040 1772.5 L 1036 1780.5 L 1035 1791.5 L 1029 1817.5 L 1029 1824.5 L 1027 1833.5 L 1026 1886.5 L 1027 1887.5 L 1027 1900.5 L 1028 1901.5 L 1028 1909.5 L 1031 1923.5 L 1032 1936.5 L 1042 1967.5 L 1047 1988.5 L 1052 1996.5 L 1060 2019.5 L 1086 2059.5 L 1112.5 2090 L 1117 2093.5 L 1127.5 2105 L 1142 2117.5 L 1146.5 2123 L 1175.5 2143 L 1189.5 2150 L 1227.5 2167 L 1233.5 2168 L 1257.5 2177 L 1284.5 2183 L 1293.5 2183 L 1310.5 2186 L 1370.5 2187 L 1371.5 2186 L 1383.5 2186 L 1396.5 2183 L 1416.5 2181 L 1433.5 2177 L 1439.5 2177 L 1488.5 2162 L 1527.5 2144 Q 1535.4 2136.9 1546.5 2133 L 1561.5 2122 L 1572.5 2121 L 1575.5 2122 L 1584 2130.5 Q 1591.9 2144.6 1603 2155.5 L 1615 2177.5 L 1645 2216.5 L 1654 2232.5 L 1671 2256.5 L 1674 2264.5 L 1674 2270.5 Q 1669.4 2281.9 1659.5 2288 L 1638.5 2301 L 1612.5 2314 L 1600.5 2323 L 1575.5 2333 L 1560.5 2341 L 1544.5 2347 L 1540.5 2347 L 1530.5 2351 L 1496.5 2359 L 1492.5 2361 L 1478.5 2363 L 1450.5 2370 L 1445.5 2370 L 1436.5 2373 L 1426.5 2373 L 1425.5 2374 L 1416.5 2374 L 1405.5 2376 L 1391.5 2376 L 1390.5 2377 L 1288.5 2377 L 1287.5 2376 L 1279.5 2376 L 1274.5 2374 L 1265.5 2374 L 1252.5 2371 L 1246.5 2371 L 1235.5 2368 L 1229.5 2368 L 1219.5 2364 L 1214.5 2364 L 1187.5 2357 L 1174.5 2355 Q 1163.2 2348.3 1148.5 2345 L 1126.5 2334 L 1118.5 2332 L 1078.5 2314 L 1065.5 2307 L 1026.5 2280 L 983.5 2243 L 954 2214.5 L 917 2167.5 L 904 2144.5 L 886 2117.5 L 874 2093.5 L 859 2059.5 L 844 2010.5 L 842 1997.5 L 839 1990.5 L 833 1961.5 L 832 1948.5 L 829 1933.5 Q 823.7 1923.3 814.5 1917 L 790.5 1902 L 762 1878.5 Q 759 1875.5 759 1869.5 Q 761.3 1862.8 766.5 1859 Q 788.5 1841 814.5 1827 L 824 1817.5 L 830 1803.5 L 833 1780.5 L 837 1770.5 L 837 1763.5 L 838 1762.5 L 840 1744.5 L 848 1711.5 L 858 1687.5 L 864 1667.5 L 890 1613.5 L 897 1600.5 L 923 1561.5 L 938 1542.5 Q 964.5 1511 994.5 1483 L 1035.5 1450 Q 1054.4 1440.4 1069.5 1427 Q 1092.8 1417.3 1112.5 1404 L 1132.5 1395 L 1160.5 1385 L 1166.5 1384 L 1183.5 1377 L 1198.5 1374 L 1226.5 1365 L 1238.5 1364 L 1265.5 1358 L 1274.5 1358 L 1282.5 1356 L 1309.5 1355 L 1310.5 1354 L 1327.5 1354 L 1328.5 1353 Z M 1316 1361 L 1307 1363 L 1296 1363 L 1295 1364 L 1269 1364 L 1244 1371 L 1228 1372 Q 1214 1378 1196 1379 L 1183 1385 L 1172 1387 L 1151 1396 L 1137 1400 L 1114 1410 L 1081 1430 L 1061 1440 Q 1042 1456 1020 1468 Q 1009 1482 994 1492 L 969 1518 L 937 1560 L 938 1562 L 943 1561 L 963 1543 L 971 1539 L 976 1533 Q 982 1524 993 1520 L 998 1514 L 1009 1504 L 1017 1495 L 1034 1482 L 1054 1470 L 1057 1465 L 1066 1457 L 1083 1451 L 1108 1437 L 1113 1436 L 1122 1429 L 1143 1420 L 1150 1415 L 1167 1411 L 1179 1404 L 1188 1402 L 1205 1393 L 1213 1391 L 1222 1391 L 1229 1388 L 1244 1386 L 1262 1381 L 1274 1380 L 1281 1378 L 1292 1378 L 1293 1377 L 1309 1376 L 1318 1373 L 1330 1372 L 1344 1368 L 1346 1365 L 1343 1362 L 1316 1361 Z " /><path fill="rgb(214,152,0)" stroke="rgb(214,152,0)" stroke-width="0" opacity="1" d="M 1972.5 1361 L 2095.5 1362 Q 2111.5 1365 2120 1375.5 L 2124 1382.5 L 2128 1395.5 L 2129 1415.5 Q 2124.7 1434.7 2111.5 1445 Q 2101.3 1452.3 2086.5 1455 L 2057.5 1456 L 2056.5 1457 L 2027.5 1457 L 2026.5 1456 L 1978.5 1456 Q 1977.3 1453.7 1972.5 1455 L 1953.5 1447 L 1941 1435.5 L 1935 1421.5 L 1934 1406.5 L 1935 1405.5 L 1936 1393.5 L 1939 1384.5 L 1950.5 1369 L 1959.5 1364 L 1972.5 1361 Z M 2029 1421 L 2028 1422 L 2013 1422 L 2012 1423 L 1990 1423 L 1976 1426 Q 1963 1428 1956 1424 Q 1947 1423 1945 1428 Q 1944 1436 1948 1440 L 1955 1445 Q 1964 1451 1977 1454 L 2019 1454 L 2020 1455 L 2082 1454 L 2096 1451 L 2107 1445 Q 2113 1442 2113 1433 L 2108 1428 L 2098 1428 L 2092 1426 L 2073 1424 L 2072 1423 L 2050 1423 Q 2042 1419 2029 1421 Z " /><path fill="rgb(214,152,0)" stroke="rgb(214,152,0)" stroke-width="0" opacity="1" d="M 2696.5 1450 L 2761.5 1450 L 2762.5 1451 L 2777.5 1451 Q 2794 1457 2804 1469.5 Q 2815.6 1482.4 2814 1508.5 L 2812 1519.5 L 2809 1527.5 L 2793.5 1546 Q 2786.9 1551.9 2776.5 1554 L 2683.5 1554 Q 2666 1550 2656 1538.5 Q 2648.8 1530.7 2645 1519.5 L 2643 1510.5 L 2643 1494.5 L 2651 1473.5 L 2659.5 1464 L 2673.5 1455 L 2682.5 1452 L 2688.5 1452 L 2696.5 1450 Z M 2693 1452 L 2678 1455 L 2660 1466 L 2653 1474 L 2645 1494 Q 2643 1520 2654 1534 Q 2665 1548 2686 1553 L 2772 1553 L 2782 1551 L 2795 1543 L 2807 1528 L 2810 1521 L 2812 1510 Q 2815 1483 2803 1471 L 2796 1463 L 2782 1455 L 2776 1453 L 2763 1453 L 2762 1452 L 2752 1452 L 2751 1453 L 2743 1453 L 2742 1452 L 2693 1452 Z " /><path fill="rgb(214,152,0)" stroke="rgb(214,152,0)" stroke-width="0" opacity="1" d="M 402.5 1676 L 427.5 1676 Q 429.2 1678.7 435.5 1677 L 436.5 1678 L 453.5 1680 L 475.5 1686 L 505.5 1699 L 527.5 1714 L 541 1726.5 L 564 1753.5 L 575 1773.5 L 588.5 1791 Q 609 1806 625 1825.5 L 628.5 1830 L 643 1842.5 L 652 1857.5 L 653 1865.5 Q 649.7 1875.2 642.5 1881 L 624.5 1892 L 609.5 1904 L 592.5 1914 L 582 1923.5 L 565 1955.5 L 535.5 1989 L 510.5 2008 L 483.5 2019 L 470.5 2026 L 451.5 2031 L 429.5 2033 L 428.5 2034 L 414.5 2034 L 413.5 2033 L 393.5 2033 L 382.5 2031 Q 361.2 2026.3 343.5 2018 L 308.5 1998 L 285 1976.5 L 264 1948.5 L 251 1921.5 L 245 1903.5 L 242 1885.5 L 239 1877.5 L 239 1869.5 L 238 1868.5 L 238 1837.5 L 242 1817.5 L 248 1798.5 Q 253.4 1789.9 256 1778.5 L 265 1761.5 Q 281 1735 304.5 1716 L 332.5 1698 L 352.5 1688 L 381.5 1679 L 392.5 1677 L 401.5 1677 L 402.5 1676 Z M 391 1686 L 385 1688 L 375 1689 L 345 1699 L 325 1709 L 296 1730 L 284 1742 L 264 1771 L 247 1815 L 244 1829 L 244 1839 L 242 1849 L 243 1865 L 247 1884 L 247 1892 L 255 1918 L 261 1928 L 262 1933 L 268 1945 L 282 1964 Q 288 1973 299 1978 Q 302 1979 303 1977 L 302 1971 L 273 1924 L 264 1892 Q 265 1885 262 1883 L 262 1873 L 261 1872 L 261 1850 L 262 1849 L 263 1835 L 272 1803 L 280 1785 L 307 1748 L 339 1718 L 348 1712 L 369 1703 L 380 1700 L 399 1691 L 400 1688 L 399 1686 L 391 1686 Z M 405 1753 L 391 1756 L 377 1761 L 353 1775 Q 336 1788 326 1807 L 317 1828 L 316 1840 L 315 1841 L 315 1850 L 314 1851 L 315 1872 L 318 1885 L 329 1907 L 341 1923 L 352 1932 L 378 1948 L 398 1955 L 417 1956 L 418 1957 L 435 1957 L 450 1954 Q 466 1950 478 1941 L 489 1929 L 494 1925 Q 504 1915 511 1902 L 519 1881 L 522 1865 L 522 1845 L 520 1838 L 520 1833 L 509 1805 L 498 1790 Q 482 1770 457 1759 L 431 1753 L 405 1753 Z " /><path fill="rgb(214,152,0)" stroke="rgb(214,152,0)" stroke-width="0" opacity="1" d="M 1971.5 1817 L 1980.5 1817 L 1981.5 1818 L 2024.5 1818 L 2025.5 1817 L 2045.5 1817 L 2046.5 1818 L 2099.5 1818 L 2100.5 1819 L 2195.5 1819 L 2196.5 1820 L 2210.5 1820 L 2227.5 1823 Q 2239.8 1827.8 2247 1837.5 Q 2253.3 1845.3 2256 1856.5 L 2258 1878.5 L 2256 1889.5 L 2250 1903.5 L 2234.5 1921 L 2224.5 1927 L 2212.5 1930 L 2074.5 1930 L 2073.5 1929 L 1968.5 1929 L 1947.5 1921 L 1936 1911.5 Q 1927.6 1898.4 1923 1881.5 L 1923 1866.5 Q 1926 1849.5 1934 1837.5 L 1943.5 1827 L 1952.5 1822 L 1971.5 1817 Z M 1951 1904 L 1945 1909 L 1947 1915 Q 1957 1924 1973 1928 L 1981 1928 L 1982 1927 L 1991 1927 L 1992 1928 L 2027 1928 L 2028 1927 L 2064 1927 L 2065 1928 L 2213 1928 L 2221 1926 L 2228 1922 Q 2234 1918 2237 1911 L 2235 1906 L 2227 1906 L 2226 1907 L 2210 1907 L 2209 1906 L 2046 1906 L 2045 1907 L 1965 1907 L 1956 1904 L 1951 1904 Z " /><path fill="rgb(214,152,0)" stroke="rgb(214,152,0)" stroke-width="0" opacity="1" d="M 2516.5 1848 L 2526.5 1848 L 2527.5 1849 L 2567.5 1849 L 2568.5 1848 L 2588.5 1848 L 2599.5 1852 L 2607 1859.5 L 2611 1869.5 L 2611 1880.5 Q 2608.9 1887.9 2603.5 1892 L 2594.5 1896 L 2561.5 1897 L 2560.5 1898 L 2549.5 1898 L 2548.5 1899 L 2537.5 1899 L 2536.5 1900 L 2518.5 1900 L 2501.5 1897 L 2491 1889.5 Q 2486 1884.5 2486 1874.5 Q 2488.5 1864 2495.5 1858 Q 2504.2 1851.2 2516.5 1848 Z " /><path fill="rgb(214,152,0)" stroke="rgb(214,152,0)" stroke-width="0" opacity="1" d="M 2881.5 1939 L 2944.5 1939 L 2954.5 1941 L 2964.5 1945 L 2978 1957.5 Q 2987.7 1969.8 2988 1991.5 L 2983 2011.5 Q 2978.7 2022.2 2970.5 2029 L 2955.5 2036 L 2936.5 2038 L 2935.5 2037 L 2871.5 2037 L 2866.5 2036 Q 2851.9 2030.6 2844 2018.5 Q 2838.3 2011.2 2836 2000.5 L 2836 1982.5 Q 2839.6 1964.6 2850.5 1954 L 2866.5 1942 L 2881.5 1939 Z " /><path fill="rgb(214,152,0)" stroke="rgb(214,152,0)" stroke-width="0" opacity="1" d="M 2486.5 2159 L 2493.5 2159 L 2505.5 2162 L 2558.5 2163 L 2559.5 2162 L 2629.5 2162 Q 2630.8 2159.8 2635.5 2161 L 2642.5 2163 L 2646 2166.5 L 2649 2175.5 L 2653 2207.5 L 2656 2214.5 L 2658 2242.5 L 2660 2252.5 L 2660 2263.5 L 2662 2270.5 L 2662 2280.5 L 2663 2281.5 L 2663 2290.5 L 2665 2301.5 L 2665 2313.5 L 2668 2326.5 L 2669 2347.5 L 2670 2348.5 L 2670 2356.5 L 2671 2357.5 L 2672 2372.5 L 2674 2380.5 L 2674 2390.5 L 2677 2407.5 L 2678 2424.5 L 2681 2433.5 L 2683 2457.5 L 2685 2465.5 L 2686 2483.5 L 2688 2488.5 L 2688 2498.5 L 2689 2499.5 L 2689 2507.5 L 2691 2516.5 L 2692 2534.5 L 2695 2544.5 L 2695 2553.5 L 2696 2554.5 L 2696 2562.5 L 2699 2577.5 L 2699 2584.5 L 2702 2597.5 L 2704 2618.5 L 2707 2629.5 L 2708 2644.5 L 2710 2650.5 L 2712 2681.5 L 2713 2682.5 L 2713 2693.5 L 2714 2694.5 L 2714 2720.5 L 2713 2721.5 L 2711 2749.5 L 2706 2760.5 L 2698 2788.5 L 2672 2826.5 L 2657.5 2842 L 2626.5 2866 L 2583.5 2885 L 2571.5 2886 L 2551.5 2890 L 2538.5 2890 L 2537.5 2891 L 2496.5 2891 Q 2494.8 2888.3 2488.5 2890 L 2487.5 2891 L 2414.5 2891 L 2413.5 2892 L 1961.5 2892 Q 1960 2894.5 1954.5 2893 L 1953.5 2892 L 1943.5 2892 L 1942.5 2893 L 1825.5 2893 L 1824.5 2892 L 1722.5 2892 L 1721.5 2893 L 811.5 2893 L 810.5 2892 L 789.5 2891 L 753.5 2879 Q 716.3 2861.7 690 2833.5 Q 668.6 2807.9 656 2773.5 L 648 2746.5 L 647 2720.5 L 652.5 2713 L 660.5 2712 L 717.5 2731 L 723.5 2731 L 738.5 2735 L 753.5 2736 L 761.5 2738 L 801.5 2739 L 802.5 2738 L 831.5 2737 L 847.5 2734 L 859.5 2734 L 860.5 2733 L 876.5 2732 L 877.5 2731 L 890.5 2731 L 901.5 2728 L 911.5 2728 L 931.5 2724 L 948.5 2723 L 954.5 2721 L 966.5 2721 L 983.5 2718 L 1002.5 2717 L 1013.5 2714 L 1022.5 2714 L 1023.5 2713 L 1031.5 2713 L 1041.5 2711 L 1052.5 2711 L 1065.5 2708 L 1075.5 2708 L 1097.5 2704 L 1106.5 2704 L 1118.5 2701 L 1125.5 2701 L 1154.5 2696 L 1162.5 2696 L 1173.5 2693 L 1189.5 2692 L 1206.5 2688 L 1221.5 2687 L 1227.5 2685 L 1244.5 2684 L 1261.5 2680 L 1268.5 2680 L 1286.5 2676 L 1301.5 2675 L 1312.5 2672 L 1326.5 2671 L 1338.5 2668 L 1347.5 2668 L 1374.5 2663 L 1383.5 2663 L 1392.5 2660 L 1409.5 2659 L 1428.5 2655 L 1435.5 2655 L 1445.5 2652 L 1453.5 2652 L 1454.5 2651 L 1460.5 2651 L 1473.5 2648 L 1491.5 2646 L 1505.5 2642 L 1513.5 2642 L 1531.5 2638 L 1561.5 2634 L 1583.5 2629 L 1605.5 2626 L 1610.5 2624 L 1624.5 2623 L 1645.5 2618 L 1675.5 2614 L 1698.5 2609 L 1711.5 2608 L 1720.5 2605 L 1735.5 2604 L 1754.5 2599 L 1766.5 2598 Q 1771.9 2594.9 1780.5 2595 L 1793.5 2591 L 1817.5 2588 L 1830.5 2584 L 1841.5 2583 L 1863.5 2578 L 1875.5 2577 L 1884.5 2574 L 1890.5 2574 L 1915.5 2568 L 1929.5 2567 L 1952.5 2561 L 1965.5 2560 Q 1986 2553.5 2010.5 2551 L 2049.5 2541 L 2057.5 2541 L 2080.5 2536 L 2098.5 2534 L 2122.5 2527 L 2148.5 2523 L 2160.5 2519 L 2183.5 2516 L 2216.5 2507 L 2225.5 2506 L 2229.5 2504 L 2268.5 2496 L 2315.5 2473 Q 2334.9 2458.9 2351 2441.5 L 2364 2424.5 L 2383 2389.5 L 2388 2373.5 L 2389 2364.5 Q 2390.7 2356.7 2395.5 2352 L 2404.5 2347 L 2412.5 2345 L 2427.5 2338 L 2436.5 2332 L 2455 2315.5 Q 2470.6 2291.1 2480 2260.5 L 2481 2244.5 L 2482 2243.5 L 2482 2231.5 L 2483 2230.5 L 2483 2202.5 L 2480 2185.5 L 2479 2165.5 L 2483.5 2160 L 2486.5 2159 Z " /></svg>